#define im_width 264
#define im_height 176
static char im_bits[] = {
0xff,0xff,0xff,0xff,0xff,0xff,0xff,0xff,0xff,0xff,0xff,0xff,0xff,0xff,0xff,
0xff,0xff,0xff,0xff,0xff,0xff,0xff,0xff,0xff,0xff,0xff,0xff,0xff,0xff,0xff,
0xff,0xff,0xff,0xff,0xff,0xff,0xff,0xff,0xff,0xff,0xff,0xff,0xff,0xff,0xff,
0xff,0xff,0xff,0xff,0xff,0xff,0xff,0xff,0xff,0xff,0xff,0xff,0xff,0xff,0xff,
0xff,0xff,0xff,0xff,0xff,0xff,0xff,0xff,0xff,0xff,0xff,0xff,0xff,0xff,0xff,
0xff,0xff,0xff,0xff,0xff,0xff,0xff,0xff,0xff,0xff,0xff,0xff,0xff,0xff,0xff,
0xff,0xff,0xff,0xff,0xff,0xff,0xff,0xff,0xff,0xff,0xff,0xff,0xff,0xff,0xff,
0xff,0xff,0xff,0xff,0xff,0xff,0xff,0xff,0xff,0xff,0xff,0xff,0xff,0xff,0xff,
0xff,0xff,0xff,0xff,0xff,0xff,0xff,0xff,0xff,0xff,0xff,0xff,0xff,0xff,0xff,
0xff,0xff,0xff,0xff,0xff,0xff,0xff,0xff,0xff,0xff,0xff,0xff,0xff,0xff,0xff,
0xff,0xff,0xff,0xff,0xff,0xff,0xff,0xff,0xff,0xff,0xff,0xff,0xff,0xff,0xff,
0xff,0xff,0xff,0xff,0xff,0xff,0xff,0xff,0xff,0xff,0xff,0xff,0xff,0xff,0xff,
0xff,0xff,0xff,0xff,0xff,0xff,0xff,0xff,0xff,0xff,0xff,0xff,0xff,0xff,0xff,
0xff,0xff,0xff,0xff,0xff,0xff,0xff,0xff,0xff,0xff,0xff,0xff,0xff,0xff,0xff,
0xff,0xff,0xff,0xff,0xff,0xff,0xff,0xff,0xff,0xff,0xff,0xff,0xff,0xff,0xff,
0xff,0xff,0xff,0xff,0xff,0xff,0xff,0xff,0xff,0xff,0xff,0xff,0xff,0xff,0xff,
0xff,0xff,0xff,0xff,0xff,0xff,0xff,0xff,0xff,0xff,0xff,0xff,0xff,0xff,0xff,
0xff,0xff,0xff,0xff,0xff,0xff,0xff,0xff,0xff,0xff,0xff,0xff,0xff,0xff,0xff,
0xff,0xff,0xff,0xff,0xff,0xff,0xff,0xff,0xff,0xff,0xff,0xff,0xff,0xff,0xff,
0xff,0xff,0xff,0xff,0xff,0xff,0xff,0xff,0xff,0xff,0xff,0xff,0xff,0xff,0xff,
0xff,0xff,0xff,0xff,0xff,0xff,0xff,0xff,0xff,0xff,0xff,0xff,0xff,0xff,0xff,
0xff,0xff,0xff,0xff,0xff,0xff,0xff,0xff,0xff,0xff,0xff,0xff,0xff,0xff,0xff,
0xff,0xff,0xff,0xff,0xff,0xff,0xff,0xff,0xff,0xff,0xff,0xff,0xff,0xff,0xff,
0xff,0xff,0xff,0xff,0xff,0xff,0xff,0xff,0xff,0xff,0xff,0xff,0xff,0xff,0xff,
0xff,0xff,0xff,0xff,0xff,0xff,0xff,0xff,0xff,0xff,0xff,0xff,0xff,0xff,0xff,
0xff,0xff,0xff,0xff,0xff,0xff,0xff,0xff,0xff,0xff,0xff,0xff,0xff,0xff,0xff,
0xff,0xff,0xff,0xff,0xff,0xff,0xff,0xff,0xff,0xff,0xff,0xff,0xff,0xff,0xff,
0xff,0xff,0xff,0xff,0xff,0xff,0xff,0xff,0xff,0xff,0xff,0xff,0xff,0xff,0xff,
0xff,0xff,0xff,0xff,0xff,0xff,0xff,0xff,0xff,0xff,0xff,0xff,0xff,0xff,0xff,
0xff,0xff,0xff,0xff,0xff,0xff,0xff,0xff,0xff,0xff,0xff,0xff,0xff,0xff,0xff,
0xff,0xff,0xff,0xff,0xff,0xff,0xff,0xff,0xff,0xff,0xff,0xff,0xff,0xff,0xff,
0xff,0xff,0xff,0xff,0xff,0xff,0xff,0xff,0xff,0xff,0xff,0xff,0xff,0xff,0xff,
0xff,0xff,0xff,0xff,0xff,0xff,0xff,0xff,0xff,0xff,0xff,0xff,0xff,0xff,0xff,
0xff,0xff,0xff,0xff,0xff,0xff,0xff,0xff,0xff,0xff,0xff,0xff,0xff,0xff,0xff,
0xff,0xff,0xff,0xff,0xff,0xff,0xff,0xff,0xff,0xff,0xff,0xff,0xff,0xff,0xff,
0xff,0xff,0xff,0xff,0xff,0xff,0xff,0xff,0xff,0xff,0xff,0xff,0xff,0xff,0xff,
0xff,0xff,0xff,0xff,0xff,0xff,0xff,0xff,0xff,0xff,0xff,0xff,0xff,0xff,0xff,
0xff,0xff,0xff,0xff,0xff,0xff,0xff,0xff,0xff,0x1f,0xe0,0xff,0xff,0xff,0xff,
0xff,0xff,0xff,0xff,0xff,0xff,0xff,0xff,0xff,0xff,0xff,0xff,0xff,0xff,0xff,
0xff,0xff,0xff,0xff,0xff,0xff,0xff,0xff,0xff,0xff,0xff,0xff,0x03,0x00,0xfe,
0xff,0xff,0xff,0xff,0xff,0xff,0xff,0xff,0xff,0xff,0xff,0xff,0xff,0xff,0xff,
0xff,0xff,0xff,0xff,0xff,0xff,0xff,0xff,0xff,0xff,0xff,0xff,0xff,0xff,0xff,
0x00,0x00,0xf8,0xff,0xff,0xff,0xff,0xff,0xff,0xff,0xff,0xff,0xff,0xff,0xff,
0xff,0xff,0xff,0xff,0xff,0xff,0xff,0xff,0xff,0xff,0xff,0xff,0xff,0xff,0xff,
0xff,0xff,0x3f,0x00,0x00,0xf0,0xff,0xff,0xff,0xff,0xff,0xff,0xff,0xff,0xff,
0xff,0xff,0xff,0xff,0xff,0xff,0xff,0xff,0xff,0xff,0xff,0xff,0xff,0xff,0xff,
0xff,0xff,0xff,0xff,0xff,0x1f,0x00,0x00,0xc0,0x0f,0xc0,0xff,0xff,0xff,0xff,
0xff,0xff,0xff,0xff,0xff,0xff,0xff,0xff,0xff,0xff,0xff,0xff,0xff,0xff,0xff,
0xff,0xff,0xff,0xff,0xff,0xff,0xff,0xff,0x0f,0x00,0x00,0xc0,0x01,0x00,0xff,
0xff,0xff,0xff,0xff,0xff,0xff,0xff,0xff,0xff,0xff,0xff,0xff,0xff,0xff,0xff,
0xff,0xff,0xff,0xff,0xff,0xff,0xff,0xff,0xff,0xff,0xff,0x0f,0x00,0x00,0x80,
0x00,0x00,0xfc,0xff,0xff,0xff,0xff,0xff,0xff,0xff,0xff,0xff,0xff,0xff,0xff,
0xff,0xff,0xff,0xff,0xff,0xff,0xff,0xff,0xff,0xff,0xff,0xff,0xff,0xff,0x07,
0x00,0x00,0x00,0x01,0x00,0xf8,0xff,0xff,0xff,0xff,0xff,0xff,0xff,0xff,0xff,
0xff,0xff,0xff,0xff,0xff,0xff,0xff,0xff,0xff,0xff,0xff,0xff,0xff,0xff,0xff,
0xff,0xff,0x07,0x00,0x00,0x00,0x06,0x00,0xf0,0xff,0xff,0xff,0xff,0xff,0xff,
0xff,0xff,0xff,0xff,0xff,0xff,0xff,0xff,0xff,0xff,0xff,0xff,0xff,0xff,0xff,
0xff,0xff,0xff,0xff,0xff,0x03,0x00,0x00,0x00,0x00,0x00,0xe0,0xff,0xff,0xff,
0xff,0xff,0xff,0xff,0xff,0xff,0xff,0xff,0xff,0xff,0xff,0xff,0xff,0xff,0xff,
0xff,0xff,0xff,0xff,0xff,0xff,0xff,0xff,0x07,0x00,0x00,0x00,0x00,0x00,0xe0,
0xff,0xff,0xff,0xff,0xff,0xff,0xff,0xff,0xff,0xff,0xff,0xff,0xff,0xff,0xff,
0xff,0xff,0xff,0xff,0xff,0xff,0xff,0xff,0xff,0xff,0xff,0x07,0x00,0x00,0x00,
0x00,0x00,0xe0,0xff,0xff,0xff,0xff,0xff,0xff,0xff,0xff,0xff,0xff,0xff,0xff,
0xff,0xff,0xff,0xff,0xff,0xff,0xff,0xff,0xff,0xff,0xff,0xff,0xff,0xff,0x07,
0x00,0x00,0x00,0x00,0x00,0xe0,0xff,0xff,0xff,0xff,0xff,0xff,0xff,0xff,0xff,
0xff,0xff,0xff,0xff,0xff,0xff,0xff,0xff,0xff,0xff,0xff,0xff,0xff,0xff,0xff,
0xff,0xff,0x07,0x00,0x00,0x00,0x00,0x00,0xe0,0xff,0xff,0xff,0xff,0xff,0xff,
0xff,0xff,0x0f,0x00,0x00,0x00,0x0f,0x00,0xf0,0xf0,0x0f,0xff,0x0f,0x0f,0x00,
0x00,0x00,0xff,0xff,0xff,0x0f,0x00,0x00,0x00,0x00,0x00,0xf0,0xff,0xff,0xff,
0xff,0xff,0xff,0xff,0xff,0x0f,0x00,0x00,0x00,0x0f,0x00,0xf0,0xf0,0x0f,0xff,
0x0f,0x0f,0x00,0x00,0x00,0xff,0xff,0xff,0x1f,0x00,0x00,0x00,0x00,0x00,0xf0,
0xff,0xff,0xff,0xff,0xff,0xff,0xff,0xff,0x0f,0x00,0x00,0x00,0x0f,0x00,0xf0,
0xf0,0x0f,0xff,0x0f,0x0f,0x00,0x00,0x00,0xff,0xff,0xff,0x3f,0x00,0x00,0x00,
0x00,0x00,0xfc,0xff,0xff,0xff,0xff,0xff,0xff,0xff,0xff,0x0f,0x00,0x00,0x00,
0x0f,0x00,0xf0,0xf0,0x0f,0xff,0x0f,0x0f,0x00,0x00,0x00,0xff,0xff,0xff,0x7f,
0x00,0x00,0x00,0x00,0x00,0xfe,0xff,0xff,0xff,0xff,0xff,0xff,0xff,0xff,0x0f,
0xff,0xff,0x0f,0xff,0xff,0x00,0x0f,0x0f,0x00,0x00,0x0f,0xff,0xff,0x0f,0xff,
0xff,0xff,0xff,0x01,0x00,0x00,0x00,0x80,0xff,0xff,0xff,0xff,0xff,0xff,0xff,
0xff,0xff,0x0f,0xff,0xff,0x0f,0xff,0xff,0x00,0x0f,0x0f,0x00,0x00,0x0f,0xff,
0xff,0x0f,0xff,0xff,0xff,0xff,0x0f,0x00,0x00,0x00,0xf0,0xff,0xff,0xff,0xff,
0xff,0xff,0xff,0xff,0xff,0x0f,0xff,0xff,0x0f,0xff,0xff,0x00,0x0f,0x0f,0x00,
0x00,0x0f,0xff,0xff,0x0f,0xff,0xff,0xff,0xff,0xff,0x01,0x00,0x00,0xe0,0xff,
0xff,0xff,0xff,0xff,0xff,0xff,0xff,0xff,0x0f,0xff,0xff,0x0f,0xff,0xff,0x00,
0x0f,0x0f,0x00,0x00,0x0f,0xff,0xff,0x0f,0xff,0xff,0xff,0xff,0x3f,0x00,0x00,
0x00,0xe0,0xff,0xff,0xff,0xff,0xff,0xff,0xff,0xff,0xff,0x0f,0x0f,0x00,0x0f,
0xff,0xf0,0xf0,0x00,0x00,0x0f,0xf0,0x0f,0x0f,0x00,0x0f,0xff,0xff,0xff,0xff,
0x3f,0x00,0x00,0x00,0xe0,0xff,0xff,0xff,0xff,0xff,0xff,0xff,0xff,0xff,0x0f,
0x0f,0x00,0x0f,0xff,0xf0,0xf0,0x00,0x00,0x0f,0xf0,0x0f,0x0f,0x00,0x0f,0xff,
0xff,0xff,0xff,0x3f,0x00,0x00,0x00,0xe0,0xff,0xff,0xff,0xff,0xff,0xff,0xff,
0xff,0xff,0x0f,0x0f,0x00,0x0f,0xff,0xf0,0xf0,0x00,0x00,0x0f,0xf0,0x0f,0x0f,
0x00,0x0f,0xff,0xff,0xff,0xff,0x0f,0x00,0x00,0x00,0x80,0xff,0xff,0xff,0xff,
0xff,0xff,0xff,0xff,0xff,0x0f,0x0f,0x00,0x0f,0xff,0xf0,0xf0,0x00,0x00,0x0f,
0xf0,0x0f,0x0f,0x00,0x0f,0xff,0xff,0xff,0xff,0x0f,0x00,0x00,0x00,0x80,0xff,
0xff,0xff,0xff,0xff,0xff,0xff,0xff,0xff,0x0f,0x0f,0x00,0x0f,0xff,0x0f,0x00,
0x00,0xff,0x00,0xff,0x0f,0x0f,0x00,0x0f,0xff,0xff,0xff,0xff,0x0f,0x00,0x00,
0x00,0x80,0xff,0xff,0xff,0xff,0xff,0xff,0xff,0xff,0xff,0x0f,0x0f,0x00,0x0f,
0xff,0x0f,0x00,0x00,0xff,0x00,0xff,0x0f,0x0f,0x00,0x0f,0xff,0xff,0xff,0xff,
0x0f,0x00,0x00,0x00,0x80,0xff,0xff,0xff,0xff,0xff,0xff,0xff,0xff,0xff,0x0f,
0x0f,0x00,0x0f,0xff,0x0f,0x00,0x00,0xff,0x00,0xff,0x0f,0x0f,0x00,0x0f,0xff,
0xff,0xff,0xff,0x0f,0x00,0x00,0x00,0x80,0xff,0xff,0xff,0xff,0xff,0xff,0xff,
0xff,0xff,0x0f,0x0f,0x00,0x0f,0xff,0x0f,0x00,0x00,0xff,0x00,0xff,0x0f,0x0f,
0x00,0x0f,0xff,0xff,0xff,0xff,0x0f,0xc0,0x03,0x0e,0x80,0xff,0xff,0xff,0xff,
0xff,0xff,0xff,0xff,0xff,0x0f,0x0f,0x00,0x0f,0xff,0x0f,0x00,0xff,0xff,0xf0,
0x00,0x0f,0x0f,0x00,0x0f,0xff,0xff,0xff,0xff,0x0f,0xc0,0x83,0x3f,0x80,0xff,
0xff,0xff,0xff,0xff,0xff,0xff,0xff,0xff,0x0f,0x0f,0x00,0x0f,0xff,0x0f,0x00,
0xff,0xff,0xf0,0x00,0x0f,0x0f,0x00,0x0f,0xff,0xff,0xff,0xff,0x0f,0xc0,0x83,
0x3f,0x80,0xff,0xff,0xff,0xff,0xff,0xff,0xff,0xff,0xff,0x0f,0x0f,0x00,0x0f,
0xff,0x0f,0x00,0xff,0xff,0xf0,0x00,0x0f,0x0f,0x00,0x0f,0xff,0xff,0xff,0xff,
0x0f,0xc0,0xc3,0x7f,0x80,0xff,0xff,0xff,0xff,0xff,0xff,0xff,0xff,0xff,0x0f,
0x0f,0x00,0x0f,0xff,0x0f,0x00,0xff,0xff,0xf0,0x00,0x0f,0x0f,0x00,0x0f,0xff,
0xff,0xff,0xff,0x0f,0xc0,0xc3,0x7f,0x80,0xff,0xff,0xff,0xff,0xff,0xff,0xff,
0xff,0xff,0x0f,0xff,0xff,0x0f,0xff,0xf0,0x00,0x0f,0x0f,0xf0,0xff,0x0f,0xff,
0xff,0x0f,0xff,0xff,0xff,0xff,0x0f,0xc0,0xe3,0x7f,0x80,0xff,0xff,0xff,0xff,
0xff,0xff,0xff,0xff,0xff,0x0f,0xff,0xff,0x0f,0xff,0xf0,0x00,0x0f,0x0f,0xf0,
0xff,0x0f,0xff,0xff,0x0f,0xff,0xff,0xff,0xff,0x0f,0xc0,0xe3,0xff,0xc0,0xff,
0xff,0xff,0xff,0xff,0xff,0xff,0xff,0xff,0x0f,0xff,0xff,0x0f,0xff,0xf0,0x00,
0x0f,0x0f,0xf0,0xff,0x0f,0xff,0xff,0x0f,0xff,0xff,0xff,0xff,0x0f,0xc0,0xc3,
0xff,0x80,0xff,0xff,0xff,0xff,0xff,0xff,0xff,0xff,0xff,0x0f,0xff,0xff,0x0f,
0xff,0xf0,0x00,0x0f,0x0f,0xf0,0xff,0x0f,0xff,0xff,0x0f,0xff,0xff,0xff,0xff,
0x1f,0xc0,0xe3,0x7f,0xc0,0xff,0xff,0xff,0xff,0xff,0xff,0xff,0xff,0xff,0x0f,
0x00,0x00,0x00,0x0f,0x0f,0x0f,0x0f,0x0f,0x0f,0x0f,0x0f,0x00,0x00,0x00,0xff,
0xff,0xff,0xff,0x0f,0xc0,0xc3,0xff,0x80,0xff,0xff,0xff,0xff,0xff,0xff,0xff,
0xff,0xff,0x0f,0x00,0x00,0x00,0x0f,0x0f,0x0f,0x0f,0x0f,0x0f,0x0f,0x0f,0x00,
0x00,0x00,0xff,0xff,0xff,0xff,0x1f,0xc0,0xc3,0x7f,0xc0,0xff,0xff,0xff,0xff,
0xff,0xff,0xff,0xff,0xff,0x0f,0x00,0x00,0x00,0x0f,0x0f,0x0f,0x0f,0x0f,0x0f,
0x0f,0x0f,0x00,0x00,0x00,0xff,0xff,0xff,0xff,0x1f,0xc0,0xc3,0x7f,0x80,0xff,
0xff,0xff,0xff,0xff,0xff,0xff,0xff,0xff,0x0f,0x00,0x00,0x00,0x0f,0x0f,0x0f,
0x0f,0x0f,0x0f,0x0f,0x0f,0x00,0x00,0x00,0xff,0xff,0xff,0xff,0x1f,0xc0,0xc3,
0x3f,0xc0,0xff,0xff,0xff,0xff,0xff,0xff,0xff,0xff,0xff,0xff,0xff,0xff,0xff,
0x0f,0xf0,0xff,0xf0,0x00,0x0f,0x0f,0xff,0xff,0xff,0xff,0xff,0xff,0xff,0xff,
0x1f,0xc0,0x83,0x3f,0xc0,0xff,0xff,0xff,0xff,0xff,0xff,0xff,0xff,0xff,0xff,
0xff,0xff,0xff,0x0f,0xf0,0xff,0xf0,0x00,0x0f,0x0f,0xff,0xff,0xff,0xff,0xff,
0xff,0xff,0xff,0x1f,0xc0,0x03,0x0f,0xc0,0xff,0xff,0xff,0xff,0xff,0xff,0xff,
0xff,0xff,0xff,0xff,0xff,0xff,0x0f,0xf0,0xff,0xf0,0x00,0x0f,0x0f,0xff,0xff,
0xff,0xff,0xff,0x1f,0xfe,0xff,0x1f,0x00,0x00,0x00,0xc0,0xff,0xff,0xff,0xbf,
0xff,0xff,0xff,0xff,0xff,0xff,0xff,0xff,0xff,0x0f,0xf0,0xff,0xf0,0x00,0x0f,
0x0f,0xff,0xff,0xff,0xff,0xff,0x0f,0xf0,0xff,0x1f,0x00,0x00,0x00,0xc0,0xff,
0xff,0xff,0x8f,0xff,0xff,0xff,0xff,0xff,0x0f,0xf0,0x00,0x0f,0xff,0xf0,0xff,
0xff,0xf0,0x00,0x00,0x0f,0xff,0xff,0x0f,0xff,0xef,0xc1,0xff,0x1f,0x00,0x00,
0x00,0xc0,0xff,0xff,0x1f,0xe1,0xff,0xff,0xff,0xff,0xff,0x0f,0xf0,0x00,0x0f,
0xff,0xf0,0xff,0xff,0xf0,0x00,0x00,0x0f,0xff,0xff,0x0f,0xff,0x27,0x07,0xfe,
0x3f,0x00,0x00,0x00,0xe0,0xff,0xff,0x07,0xfc,0xff,0xff,0xff,0xff,0xff,0x0f,
0xf0,0x00,0x0f,0xff,0xf0,0xff,0xff,0xf0,0x00,0x00,0x0f,0xff,0xff,0x0f,0xff,
0x07,0x38,0xf8,0xff,0xff,0xff,0xff,0xff,0xff,0xff,0x00,0xfe,0xff,0xff,0xff,
0xff,0xff,0x0f,0xf0,0x00,0x0f,0xff,0xf0,0xff,0xff,0xf0,0x00,0x00,0x0f,0xff,
0xff,0x0f,0xff,0x07,0xe0,0xc0,0xff,0xff,0xff,0xff,0xff,0xff,0x3f,0x00,0xfe,
0xff,0xff,0xff,0xff,0xff,0x0f,0x0f,0xf0,0xff,0xff,0x0f,0x00,0xf0,0x00,0xff,
0x00,0xf0,0x0f,0x0f,0xf0,0xff,0x43,0x00,0x07,0xff,0xff,0xff,0xff,0xff,0xff,
0x0f,0x00,0xff,0xff,0xff,0xff,0xff,0xff,0x0f,0x0f,0xf0,0xff,0xff,0x0f,0x00,
0xf0,0x00,0xff,0x00,0xf0,0x0f,0x0f,0xf0,0xff,0xc7,0x03,0x1c,0xfc,0xff,0xff,
0xff,0xdf,0xff,0x01,0xc0,0xff,0xff,0xff,0xff,0xff,0xff,0x0f,0x0f,0xf0,0xff,
0xff,0x0f,0x00,0xf0,0x00,0xff,0x00,0xf0,0x0f,0x0f,0xf0,0xff,0x0f,0x0c,0xe0,
0xe0,0xff,0xff,0xff,0xc7,0x7f,0x00,0xf8,0xff,0xff,0xff,0xff,0xff,0xff,0x0f,
0x0f,0xf0,0xff,0xff,0x0f,0x00,0xf0,0x00,0xff,0x00,0xf0,0x0f,0x0f,0xf0,0xff,
0x3f,0x38,0x80,0xe1,0xff,0xff,0xff,0x87,0x1f,0x00,0xfe,0xff,0xff,0xff,0xff,
0xff,0xff,0x0f,0xf0,0xf0,0x0f,0xf0,0xf0,0xf0,0x0f,0xf0,0xf0,0x0f,0xf0,0xf0,
0x0f,0xff,0xff,0xff,0xc1,0x01,0x0e,0xff,0xff,0xff,0x87,0x03,0x80,0xff,0xff,
0xff,0xff,0xff,0xff,0xff,0x0f,0xf0,0xf0,0x0f,0xf0,0xf0,0xf0,0x0f,0xf0,0xf0,
0x0f,0xf0,0xf0,0x0f,0xff,0xff,0xff,0x07,0x07,0x10,0xff,0xff,0xff,0x03,0x01,
0xe0,0xff,0xff,0xff,0xff,0xff,0xff,0xff,0x0f,0xf0,0xf0,0x0f,0xf0,0xf0,0xf0,
0x0f,0xf0,0xf0,0x0f,0xf0,0xf0,0x0f,0xff,0xff,0xff,0x3f,0x38,0x00,0xff,0xff,
0xff,0x03,0x00,0xfc,0xff,0xff,0xff,0xff,0xff,0xff,0xff,0x0f,0xf0,0xf0,0x0f,
0xf0,0xf0,0xf0,0x0f,0xf0,0xf0,0x0f,0xf0,0xf0,0x0f,0xff,0xff,0xff,0xff,0xe0,
0x00,0xff,0xff,0xff,0x00,0x00,0xff,0xff,0xff,0xff,0xff,0xff,0xff,0xff,0x0f,
0x00,0xf0,0xf0,0x0f,0xff,0xff,0xff,0xf0,0x00,0x00,0x00,0xff,0xf0,0x0f,0xff,
0xff,0xff,0x07,0x07,0xfc,0xff,0x3f,0x00,0xc0,0xff,0xff,0xff,0xff,0xff,0xff,
0xff,0xff,0x0f,0x00,0xf0,0xf0,0x0f,0xff,0xff,0xff,0xf0,0x00,0x00,0x00,0xff,
0xf0,0x0f,0xff,0xff,0xff,0x1f,0x00,0xf0,0xff,0x0f,0x00,0xf0,0xff,0xff,0xff,
0xff,0xff,0xff,0xff,0xff,0x0f,0x00,0xf0,0xf0,0x0f,0xff,0xff,0xff,0xf0,0x00,
0x00,0x00,0xff,0xf0,0x0f,0xff,0xff,0xff,0x7f,0xc0,0x81,0xff,0x03,0x00,0xfc,
0xff,0xff,0xff,0xff,0xff,0xff,0xff,0xff,0x0f,0x00,0xf0,0xf0,0x0f,0xff,0xff,
0xff,0xf0,0x00,0x00,0x00,0xff,0xf0,0x0f,0xff,0xff,0xff,0xff,0xcf,0x07,0xfe,
0x00,0x00,0xfc,0xff,0xff,0xff,0xff,0xff,0xff,0xff,0xff,0x0f,0x0f,0xff,0x0f,
0xff,0x00,0xf0,0x0f,0xf0,0x0f,0x0f,0x00,0xf0,0xff,0x0f,0xff,0xff,0xff,0xff,
0xef,0x3f,0x30,0x00,0x00,0xfc,0xff,0xff,0xff,0xff,0xff,0xff,0xff,0xff,0x0f,
0x0f,0xff,0x0f,0xff,0x00,0xf0,0x0f,0xf0,0x0f,0x0f,0x00,0xf0,0xff,0x0f,0xff,
0xff,0xff,0xff,0xff,0xff,0x08,0x00,0x00,0xf8,0xff,0xff,0xff,0xff,0xff,0xff,
0xff,0xff,0x0f,0x0f,0xff,0x0f,0xff,0x00,0xf0,0x0f,0xf0,0x0f,0x0f,0x00,0xf0,
0xff,0x0f,0xff,0xff,0xff,0xff,0xff,0xff,0x03,0x00,0x58,0xf8,0xff,0xff,0xff,
0xff,0xff,0xff,0xff,0xff,0x0f,0x0f,0xff,0x0f,0xff,0x00,0xf0,0x0f,0xf0,0x0f,
0x0f,0x00,0xf0,0xff,0x0f,0xff,0xff,0xff,0xff,0xff,0x7f,0x00,0x00,0xfe,0xf8,
0xff,0xff,0xff,0xff,0xff,0xff,0xff,0xff,0x0f,0xf0,0x0f,0xf0,0x00,0x0f,0x00,
0xf0,0xf0,0xff,0x0f,0x00,0x0f,0x00,0x00,0xff,0xff,0xff,0xff,0xff,0x1f,0x00,
0xc0,0xff,0xff,0xff,0xff,0xff,0xff,0xff,0xff,0xff,0xff,0x0f,0xf0,0x0f,0xf0,
0x00,0x0f,0x00,0xf0,0xf0,0xff,0x0f,0x00,0x0f,0x00,0x00,0xff,0xff,0xff,0xff,
0xff,0x07,0x00,0x00,0xff,0xff,0xff,0xff,0xff,0xff,0xff,0xff,0xff,0xff,0x0f,
0xf0,0x0f,0xf0,0x00,0x0f,0x00,0xf0,0xf0,0xff,0x0f,0x00,0x0f,0x00,0x00,0xff,
0xff,0xff,0xff,0xff,0x01,0x00,0x1e,0xf8,0xff,0xff,0xff,0xff,0xff,0xff,0xff,
0xff,0xff,0x0f,0xf0,0x0f,0xf0,0x00,0x0f,0x00,0xf0,0xf0,0xff,0x0f,0x00,0x0f,
0x00,0x00,0xff,0xff,0xff,0xff,0x7f,0x00,0x80,0x7f,0xe0,0xff,0xff,0xff,0xff,
0xff,0xff,0xff,0xff,0xff,0x0f,0xff,0xff,0x00,0xf0,0x00,0x0f,0x0f,0xf0,0x00,
0xf0,0x0f,0xff,0x0f,0x0f,0xff,0xff,0xff,0xff,0x1f,0x00,0xf0,0xff,0x83,0xff,
0xff,0xff,0xff,0xff,0xff,0xff,0xff,0xff,0x0f,0xff,0xff,0x00,0xf0,0x00,0x0f,
0x0f,0xf0,0x00,0xf0,0x0f,0xff,0x0f,0x0f,0xff,0xff,0xff,0x3f,0x1d,0x00,0xfc,
0xff,0x0f,0xfc,0xff,0xff,0xff,0xff,0xff,0xff,0xff,0xff,0x0f,0xff,0xff,0x00,
0xf0,0x00,0x0f,0x0f,0xf0,0x00,0xf0,0x0f,0xff,0x0f,0x0f,0xff,0xff,0xff,0xcf,
0x3c,0x00,0xff,0xff,0x7f,0xf0,0xff,0xff,0xff,0xff,0xff,0xff,0xff,0xff,0x0f,
0xff,0xff,0x00,0xf0,0x00,0x0f,0x0f,0xf0,0x00,0xf0,0x0f,0xff,0x0f,0x0f,0xff,
0xff,0xff,0xf7,0x1b,0xe0,0xff,0xff,0xff,0x81,0xff,0xff,0xff,0xff,0xff,0xff,
0xff,0xff,0x0f,0x00,0x00,0xff,0x0f,0xf0,0xf0,0xff,0xf0,0xff,0x0f,0xff,0x0f,
0x0f,0x0f,0xff,0xff,0xff,0xf7,0x23,0xf8,0xff,0xff,0xff,0x07,0xfa,0xff,0xff,
0xff,0xff,0xff,0xff,0xff,0x0f,0x00,0x00,0xff,0x0f,0xf0,0xf0,0xff,0xf0,0xff,
0x0f,0xff,0x0f,0x0f,0x0f,0xff,0xff,0xff,0xe7,0x78,0xff,0xff,0xff,0xff,0x3f,
0xc0,0xff,0xff,0xff,0xff,0xff,0xff,0xff,0x0f,0x00,0x00,0xff,0x0f,0xf0,0xf0,
0xff,0xf0,0xff,0x0f,0xff,0x0f,0x0f,0x0f,0xff,0xff,0xff,0x0f,0xfb,0xff,0xff,
0xff,0xff,0xff,0x80,0xff,0xff,0xff,0xff,0xff,0xff,0xff,0x0f,0x00,0x00,0xff,
0x0f,0xf0,0xf0,0xff,0xf0,0xff,0x0f,0xff,0x0f,0x0f,0x0f,0xff,0xff,0xff,0xff,
0xfc,0xff,0xff,0xff,0xff,0xff,0x81,0xff,0xff,0xff,0xff,0xff,0xff,0xff,0xff,
0x00,0x0f,0x0f,0x0f,0x0f,0xf0,0x00,0x00,0x0f,0xff,0xf0,0xff,0xf0,0xff,0xff,
0xff,0xff,0x7f,0xfe,0xff,0xff,0xff,0xff,0xff,0xc7,0xff,0xff,0xff,0xff,0xff,
0xff,0xff,0xff,0x00,0x0f,0x0f,0x0f,0x0f,0xf0,0x00,0x00,0x0f,0xff,0xf0,0xff,
0xf0,0xff,0xff,0xff,0xff,0x9f,0xff,0xff,0xff,0xff,0xff,0xff,0xcf,0xff,0xff,
0xff,0xff,0xff,0xff,0xff,0xff,0x00,0x0f,0x0f,0x0f,0x0f,0xf0,0x00,0x00,0x0f,
0xff,0xf0,0xff,0xf0,0xff,0xff,0xff,0xff,0xe3,0xff,0xff,0xff,0xff,0xff,0xff,
0xff,0xff,0xff,0xff,0xff,0xff,0xff,0xff,0xff,0x00,0x0f,0x0f,0x0f,0x0f,0xf0,
0x00,0x00,0x0f,0xff,0xf0,0xff,0xf0,0xff,0xff,0xff,0xff,0xf8,0xff,0xff,0xff,
0xff,0xff,0xff,0xff,0xff,0xff,0xff,0xff,0xff,0xff,0xff,0xff,0xf0,0x0f,0xff,
0x00,0x00,0x0f,0x00,0x00,0xff,0xf0,0xf0,0x00,0x0f,0xf0,0xff,0xff,0xff,0xfe,
0xff,0xff,0xff,0xff,0xff,0xff,0xff,0xff,0xff,0xff,0xff,0xff,0xff,0xff,0xff,
0xf0,0x0f,0xff,0x00,0x00,0x0f,0x00,0x00,0xff,0xf0,0xf0,0x00,0x0f,0xf0,0xff,
0xff,0xff,0xff,0xff,0xff,0xff,0xff,0xff,0xff,0xff,0xff,0xff,0xff,0xff,0xff,
0xff,0xff,0xff,0xf0,0x0f,0xff,0x00,0x00,0x0f,0x00,0x00,0xff,0xf0,0xf0,0x00,
0x0f,0xf0,0xff,0xff,0xff,0xff,0xff,0xff,0xff,0xff,0xff,0xff,0xff,0xff,0xff,
0xff,0xff,0xff,0xff,0xff,0xff,0xf0,0x0f,0xff,0x00,0x00,0x0f,0x00,0x00,0xff,
0xf0,0xf0,0x00,0x0f,0xf0,0xff,0xff,0xff,0xff,0xff,0xff,0xff,0xff,0xff,0xff,
0xff,0xff,0xff,0xff,0xff,0xff,0xff,0xff,0x0f,0x0f,0x0f,0x0f,0xff,0x00,0x00,
0x00,0x00,0xff,0xf0,0xf0,0x0f,0xf0,0x0f,0xff,0xff,0xff,0xff,0xff,0xff,0xff,
0xff,0xff,0xff,0xff,0xff,0xff,0xff,0xff,0xff,0xff,0xff,0x0f,0x0f,0x0f,0x0f,
0xff,0x00,0x00,0x00,0x00,0xff,0xf0,0xf0,0x0f,0xf0,0x0f,0xff,0xff,0xff,0xff,
0xff,0xff,0xff,0xff,0xff,0xff,0xff,0xff,0xff,0xff,0xff,0xff,0xff,0xff,0x0f,
0x0f,0x0f,0x0f,0xff,0x00,0x00,0x00,0x00,0xff,0xf0,0xf0,0x0f,0xf0,0x0f,0xff,
0xff,0xff,0xff,0xff,0xff,0xff,0xff,0xff,0xff,0xff,0xff,0xff,0xff,0xff,0xff,
0xff,0xff,0x0f,0x0f,0x0f,0x0f,0xff,0x00,0x00,0x00,0x00,0xff,0xf0,0xf0,0x0f,
0xf0,0x0f,0xff,0xff,0xff,0xff,0xff,0xff,0xff,0xff,0xff,0xff,0xff,0xff,0xff,
0xff,0xff,0xff,0xff,0xff,0x0f,0xff,0xf0,0xf0,0x00,0xf0,0xf0,0x00,0xff,0xff,
0xf0,0xff,0xff,0x00,0xff,0xff,0xff,0xff,0xff,0xff,0xff,0xff,0xff,0xff,0xff,
0xff,0xff,0xff,0xff,0xff,0xff,0xff,0xff,0x0f,0xff,0xf0,0xf0,0x00,0xf0,0xf0,
0x00,0xff,0xff,0xf0,0xff,0xff,0x00,0xff,0xff,0xff,0xff,0xff,0xff,0xff,0xff,
0xff,0xff,0xff,0xff,0xff,0xff,0xff,0xff,0xff,0xff,0xff,0x0f,0xff,0xf0,0xf0,
0x00,0xf0,0xf0,0x00,0xff,0xff,0xf0,0xff,0xff,0x00,0xff,0xff,0xff,0xff,0xff,
0xff,0xff,0xff,0xff,0xff,0xff,0xff,0xff,0xff,0xff,0xff,0xff,0xff,0xff,0x0f,
0xff,0xf0,0xf0,0x00,0xf0,0xf0,0x00,0xff,0xff,0xf0,0xff,0xff,0x00,0xff,0xff,
0xff,0xff,0xff,0xff,0xff,0xff,0xff,0xff,0xff,0xff,0xff,0xff,0xff,0xff,0xff,
0xff,0xff,0x0f,0x0f,0x0f,0x0f,0xff,0xff,0xff,0xff,0xff,0xf0,0x00,0x00,0x00,
0x00,0xf0,0xff,0xff,0xff,0xff,0xff,0xff,0xff,0xff,0xff,0xff,0xff,0xff,0xff,
0xff,0xff,0xff,0xff,0xff,0x0f,0x0f,0x0f,0x0f,0xff,0xff,0xff,0xff,0xff,0xf0,
0x00,0x00,0x00,0x00,0xf0,0xff,0xff,0xff,0xff,0xff,0xff,0xff,0xff,0xff,0xff,
0xff,0xff,0xff,0xff,0xff,0xff,0xff,0xff,0x0f,0x0f,0x0f,0x0f,0xff,0xff,0xff,
0xff,0xff,0xf0,0x00,0x00,0x00,0x00,0xf0,0xff,0xff,0xff,0xff,0xff,0xff,0xff,
0xff,0xff,0xff,0xff,0xff,0xff,0xff,0xff,0xff,0xff,0xff,0x0f,0x0f,0x0f,0x0f,
0xff,0xff,0xff,0xff,0xff,0xf0,0x00,0x00,0x00,0x00,0xf0,0xff,0xff,0xff,0xff,
0xff,0xff,0xff,0xff,0xff,0xff,0xff,0xff,0xff,0xff,0xff,0xff,0xff,0xff,0xff,
0xff,0xff,0xff,0x0f,0x00,0x00,0xff,0x00,0x0f,0x00,0xff,0x0f,0xf0,0xff,0xff,
0xe7,0xe7,0xcf,0xff,0xc1,0xf3,0x73,0x00,0x0e,0xf8,0x07,0xff,0xff,0xff,0xff,
0xff,0xff,0xff,0xff,0xff,0xff,0x0f,0x00,0x00,0xff,0x00,0x0f,0x00,0xff,0x0f,
0xf0,0xff,0xff,0xe7,0xe7,0x87,0x7f,0x80,0xf3,0x71,0x00,0x0e,0xe0,0x03,0xfc,
0xff,0xff,0xff,0xff,0xff,0xff,0xff,0xff,0xff,0x0f,0x00,0x00,0xff,0x00,0x0f,
0x00,0xff,0x0f,0xf0,0xff,0xff,0xe7,0xe7,0xc7,0x3f,0xbe,0xf3,0x7c,0xfe,0xcf,
0xc7,0xf1,0xfd,0xff,0xff,0xff,0xff,0xff,0xff,0xff,0xff,0xff,0x0f,0x00,0x00,
0xff,0x00,0x0f,0x00,0xff,0x0f,0xf0,0xff,0xff,0xe7,0xe7,0x87,0x3f,0xff,0x73,
0x7c,0xfe,0xcf,0xcf,0xf9,0xff,0xff,0xff,0xff,0xff,0xff,0x0f,0x00,0x00,0x00,
0xff,0xf0,0xf0,0xf0,0x00,0x0f,0x00,0x0f,0x0f,0xf0,0xff,0xff,0xe7,0xe7,0x87,
0x9f,0xff,0x33,0x7f,0xfe,0xcf,0xcf,0xf9,0xff,0xff,0xff,0xff,0xff,0xff,0x0f,
0x00,0x00,0x00,0xff,0xf0,0xf0,0xf0,0x00,0x0f,0x00,0x0f,0x0f,0xf0,0xff,0xff,
0xe7,0xe7,0x13,0x9f,0xff,0x13,0x7f,0xfe,0xcf,0xcf,0xf1,0xff,0xff,0xff,0xff,
0xff,0xff,0x0f,0x00,0x00,0x00,0xff,0xf0,0xf0,0xf0,0x00,0x0f,0x00,0x0f,0x0f,
0xf0,0xff,0xff,0x07,0xe0,0x33,0x9f,0xff,0x83,0x7f,0x00,0xcf,0xe3,0x43,0xff,
0xff,0xff,0xff,0xff,0xff,0x0f,0x00,0x00,0x00,0xff,0xf0,0xf0,0xf0,0x00,0x0f,
0x00,0x0f,0x0f,0xf0,0xff,0xff,0x07,0xe0,0x33,0x9f,0xff,0x03,0x7f,0x00,0x0f,
0xf0,0x07,0xfe,0xff,0xff,0xff,0xff,0xff,0x0f,0xff,0xff,0x0f,0xff,0xf0,0xf0,
0xff,0xf0,0xf0,0x0f,0xff,0x0f,0xff,0x00,0xff,0xe7,0xe7,0x33,0x9f,0xff,0x33,
0x7f,0xfe,0x0f,0xf0,0x3f,0xfc,0xff,0xff,0xff,0xff,0xff,0x0f,0xff,0xff,0x0f,
0xff,0xf0,0xf0,0xff,0xf0,0xf0,0x0f,0xff,0x0f,0xff,0x00,0xff,0xe7,0xe7,0x01,
0x9e,0xff,0x73,0x7e,0xfe,0xcf,0xe3,0xff,0xf9,0xff,0xff,0xff,0xff,0xff,0x0f,
0xff,0xff,0x0f,0xff,0xf0,0xf0,0xff,0xf0,0xf0,0x0f,0xff,0x0f,0xff,0x00,0xff,
0xe7,0xe7,0x01,0x9e,0xff,0x73,0x7c,0xfe,0xcf,0xe7,0xff,0xf9,0xff,0xff,0xff,
0xff,0xff,0x0f,0xff,0xff,0x0f,0xff,0xf0,0xf0,0xff,0xf0,0xf0,0x0f,0xff,0x0f,
0xff,0x00,0xff,0xe7,0xe7,0x79,0x3e,0xff,0xf3,0x78,0xfe,0xcf,0xcf,0xff,0xf9,
0xff,0xff,0xff,0xff,0xff,0x0f,0x0f,0x00,0x0f,0x0f,0x0f,0xf0,0x0f,0xf0,0x0f,
0x00,0x00,0x00,0xf0,0x00,0xff,0xe7,0xe7,0x79,0x3e,0x9e,0xf3,0x79,0xfe,0xcf,
0xcf,0x7d,0xf8,0xff,0xff,0xff,0xff,0xff,0x0f,0x0f,0x00,0x0f,0x0f,0x0f,0xf0,
0x0f,0xf0,0x0f,0x00,0x00,0x00,0xf0,0x00,0xff,0xe7,0xe7,0xfc,0x7c,0x80,0xf3,
0x73,0x00,0xce,0x9f,0x01,0xfc,0xff,0xff,0xff,0xff,0xff,0x0f,0x0f,0x00,0x0f,
0x0f,0x0f,0xf0,0x0f,0xf0,0x0f,0x00,0x00,0x00,0xf0,0x00,0xff,0xe7,0xe7,0xfc,
0xfc,0xc1,0xf3,0x63,0x00,0xce,0x1f,0x03,0xff,0xff,0xff,0xff,0xff,0xff,0x0f,
0x0f,0x00,0x0f,0x0f,0x0f,0xf0,0x0f,0xf0,0x0f,0x00,0x00,0x00,0xf0,0x00,0xff,
0xff,0xff,0xff,0xff,0xff,0xff,0xff,0xff,0xff,0xff,0xff,0xff,0xff,0xff,0xff,
0xff,0xff,0x0f,0x0f,0x00,0x0f,0x0f,0x0f,0x00,0xf0,0xf0,0xf0,0x0f,0xff,0xf0,
0xff,0x00,0xff,0xff,0xff,0xff,0xff,0xff,0xff,0xff,0xff,0xff,0xff,0xff,0xff,
0xff,0xff,0xff,0xff,0xff,0x0f,0x0f,0x00,0x0f,0x0f,0x0f,0x00,0xf0,0xf0,0xf0,
0x0f,0xff,0xf0,0xff,0x00,0xff,0xff,0xff,0xff,0xff,0xff,0xff,0xff,0xff,0xff,
0xff,0xff,0xff,0xff,0xff,0xff,0xff,0xff,0x0f,0x0f,0x00,0x0f,0x0f,0x0f,0x00,
0xf0,0xf0,0xf0,0x0f,0xff,0xf0,0xff,0x00,0xff,0xff,0xff,0xff,0xff,0xff,0xff,
0xff,0xff,0xff,0xff,0xff,0xff,0xff,0xff,0xff,0xff,0xff,0x0f,0x0f,0x00,0x0f,
0x0f,0x0f,0x00,0xf0,0xf0,0xf0,0x0f,0xff,0xf0,0xff,0x00,0xff,0xff,0xff,0xff,
0xff,0xff,0xff,0xff,0xff,0xff,0xff,0xff,0xff,0xff,0xff,0xff,0xff,0xff,0x0f,
0x0f,0x00,0x0f,0xff,0x0f,0x0f,0x0f,0xf0,0xff,0xf0,0xf0,0x0f,0x0f,0x00,0xff,
0xff,0xff,0xff,0xff,0xff,0xff,0xff,0xff,0xff,0xff,0xff,0xff,0xff,0xff,0xff,
0xff,0xff,0x0f,0x0f,0x00,0x0f,0xff,0x0f,0x0f,0x0f,0xf0,0xff,0xf0,0xf0,0x0f,
0x0f,0x00,0xff,0xff,0xff,0xff,0xff,0xff,0xff,0xff,0xff,0xff,0xff,0xff,0xff,
0xff,0xff,0xff,0xff,0xff,0x0f,0x0f,0x00,0x0f,0xff,0x0f,0x0f,0x0f,0xf0,0xff,
0xf0,0xf0,0x0f,0x0f,0x00,0xff,0xff,0xff,0xff,0xff,0xff,0xff,0xff,0xff,0xff,
0xff,0xff,0xff,0xff,0xff,0xff,0xff,0xff,0x0f,0x0f,0x00,0x0f,0xff,0x0f,0x0f,
0x0f,0xf0,0xff,0xf0,0xf0,0x0f,0x0f,0x00,0xff,0xff,0xff,0xff,0xff,0xff,0xff,
0xff,0xff,0xff,0xff,0xff,0xff,0xff,0xff,0xff,0xff,0xff,0x0f,0xff,0xff,0x0f,
0x0f,0x0f,0xf0,0xff,0x0f,0xff,0xf0,0xf0,0x00,0x0f,0x0f,0xff,0xff,0xff,0xff,
0xff,0xff,0xff,0xff,0xff,0xff,0xff,0xff,0xff,0xff,0xff,0xff,0xff,0xff,0x0f,
0xff,0xff,0x0f,0x0f,0x0f,0xf0,0xff,0x0f,0xff,0xf0,0xf0,0x00,0x0f,0x0f,0xff,
0x3f,0xfc,0xf8,0x9c,0xff,0xf1,0xe3,0xff,0xff,0xff,0xff,0xff,0xff,0xff,0xff,
0xff,0xff,0x0f,0xff,0xff,0x0f,0x0f,0x0f,0xf0,0xff,0x0f,0xff,0xf0,0xf0,0x00,
0x0f,0x0f,0xff,0x0f,0xf0,0xf8,0x9c,0xff,0xf3,0xf3,0xff,0xff,0xff,0xff,0xff,
0xff,0xff,0xff,0xff,0xff,0x0f,0xff,0xff,0x0f,0x0f,0x0f,0xf0,0xff,0x0f,0xff,
0xf0,0xf0,0x00,0x0f,0x0f,0xff,0xcf,0xf3,0xf0,0x9c,0xff,0xe7,0xf9,0xff,0xff,
0xff,0xff,0xff,0xff,0xff,0xff,0xff,0xff,0x0f,0x00,0x00,0x00,0x0f,0xf0,0xf0,
0x00,0x00,0x0f,0x0f,0x00,0x00,0xf0,0xff,0xff,0xcf,0xf3,0xf0,0x9c,0xff,0xe7,
0xf8,0xff,0xff,0xff,0xff,0xff,0xff,0xff,0xff,0xff,0xff,0x0f,0x00,0x00,0x00,
0x0f,0xf0,0xf0,0x00,0x00,0x0f,0x0f,0x00,0x00,0xf0,0xff,0xff,0xe7,0xe7,0xe4,
0x9c,0xff,0xcf,0xfc,0xff,0xff,0xff,0xff,0xff,0xff,0xff,0xff,0xff,0xff,0x0f,
0x00,0x00,0x00,0x0f,0xf0,0xf0,0x00,0x00,0x0f,0x0f,0x00,0x00,0xf0,0xff,0xff,
0xe7,0xe7,0xe4,0x9c,0xff,0x0f,0xfe,0xff,0xff,0xff,0xff,0xff,0xff,0xff,0xff,
0xff,0xff,0x0f,0x00,0x00,0x00,0x0f,0xf0,0xf0,0x00,0x00,0x0f,0x0f,0x00,0x00,
0xf0,0xff,0xff,0xe7,0xe7,0xec,0x9c,0xff,0x1f,0xfe,0xff,0xff,0xff,0xff,0xff,
0xff,0xff,0xff,0xff,0xff,0xff,0xff,0xff,0xff,0xff,0xff,0xff,0xff,0xff,0xff,
0xff,0xff,0xff,0xff,0xff,0xff,0xe7,0xe7,0xcc,0x9c,0xff,0x3f,0xff,0xff,0xff,
0xff,0xff,0xff,0xff,0xff,0xff,0xff,0xff,0xff,0xff,0xff,0xff,0xff,0xff,0xff,
0xff,0xff,0xff,0xff,0xff,0xff,0xff,0xff,0xff,0xe7,0xe7,0xdc,0x9c,0xff,0x3f,
0xff,0xff,0xff,0xff,0xff,0xff,0xff,0xff,0xff,0xff,0xff,0xff,0xff,0xff,0xff,
0xff,0xff,0xff,0xff,0xff,0xff,0xff,0xff,0xff,0xff,0xff,0xff,0xe7,0xe7,0x9c,
0x9c,0xff,0x3f,0xff,0xff,0xff,0xff,0xff,0xff,0xff,0xff,0xff,0xff,0xff,0xff,
0xff,0xff,0xff,0xff,0xff,0xff,0xff,0xff,0xff,0xff,0xff,0xff,0xff,0xff,0xff,
0xe7,0xe7,0x9c,0x9c,0xff,0x3f,0xff,0xff,0xff,0xff,0xff,0xff,0xff,0xff,0xff,
0xff,0xff,0xff,0xff,0xff,0xff,0xff,0xff,0xff,0xff,0xff,0xff,0xff,0xff,0xff,
0xff,0xff,0xff,0xcf,0xf3,0x3c,0x9c,0xff,0x3f,0xff,0xff,0xff,0xff,0xff,0xff,
0xff,0xff,0xff,0xff,0xff,0xff,0xff,0xff,0xff,0xff,0xff,0xff,0xff,0xff,0xff,
0xff,0xff,0xff,0xff,0xff,0xff,0xcf,0xf1,0x3c,0x9c,0xff,0x3f,0xff,0xff,0xff,
0xff,0xff,0xff,0xff,0xff,0xff,0xff,0xff,0xff,0xff,0xff,0xff,0xff,0xff,0xff,
0xff,0xff,0xff,0xff,0xff,0xff,0xff,0xff,0xff,0x0f,0xf8,0x7c,0x1c,0x80,0x3f,
0xff,0xff,0xff,0xff,0xff,0xff,0xff,0xff,0xff,0xff,0xff,0xff,0xff,0xff,0xff,
0xff,0xff,0xff,0xff,0xff,0xff,0xff,0xff,0xff,0xff,0xff,0xff,0x3f,0xfc,0x7c,
0x1c,0x80,0x3f,0xff,0xff,0xff,0xff,0xff,0xff,0xff,0xff,0xff,0xff,0xff,0xff,
0xff,0xff,0xff,0xff,0xff,0xff,0xff,0xff,0xff,0xff,0xff,0xff,0xff,0xff,0xff,
0xff,0xff,0xff,0xff,0xff,0xff,0xff,0xff,0xff,0xff,0xff,0xff,0xff,0xff,0xff,
0xff,0xff,0xff,0xff,0xff,0xff,0xff,0xff,0xff,0xff,0xff,0xff,0xff,0xff,0xff,
0xff,0xff,0xff,0xff,0xff,0xff,0xff,0xff,0xff,0xff,0xff,0xff,0xff,0xff,0xff,
0xff,0xff,0xff,0xff,0xff,0xff,0xff,0xff,0xff,0xff,0xff,0xff,0xff,0xff,0xff,
0xff,0xff,0xff,0xff,0xff,0xff,0xff,0xff,0xff,0xff,0xff,0xff,0xff,0xff,0xff,
0xff,0xff,0xff,0xff,0xff,0xff,0xff,0xff,0xff,0xff,0xff,0xff,0xff,0xff,0xff,
0xff,0xff,0xff,0xff,0xff,0xff,0xff,0xff,0xff,0xff,0xff,0xff,0xff,0xff,0xff,
0xff,0xff,0xff,0xff,0xff,0xff,0xff,0xff,0xff,0xff,0xff,0xff,0xff,0xff,0xff,
0xff,0xff,0xff,0xff,0xff,0xff,0xff,0xff,0xff,0xff,0xff,0xff,0xff,0xff,0xff,
0xff,0xff,0xff,0xff,0xff,0xff,0xff,0xff,0xff,0xff,0xff,0xff,0xff,0xff,0xff,
0xff,0xff,0xff,0xff,0xff,0xff,0xff,0xff,0xff,0xff,0xff,0xff,0xff,0xff,0xff,
0xff,0xff,0xff,0xff,0xff,0xff,0xff,0xff,0xff,0xff,0xff,0xff,0xff,0xff,0xff,
0xff,0xff,0xff,0xff,0xff,0xff,0xff,0xff,0xff,0xff,0xff,0xff,0xff,0xff,0xff,
0xff,0xff,0xff,0xff,0xff,0xff,0xff,0xff,0xff,0xff,0xff,0xff,0xff,0xff,0xff,
0xff,0xff,0xff,0xff,0xff,0xff,0xff,0xff,0xff,0xff,0xff,0xff,0xff,0xff,0xff,
0xff,0xff,0xff,0xff,0xff,0xff,0xff,0xff,0xff,0xff,0xff,0xff,0xff,0xff,0xff,
0xff,0xff,0xff,0xff,0xff,0xff,0xff,0xff,0xff,0xff,0xff,0xff,0xff,0xff,0xff,
0xff,0xff,0xff,0xff,0xff,0xff,0xff,0xff,0xff,0xff,0xff,0xff,0xff,0xff,0xff,
0xff,0xff,0xff,0xff,0xff,0xff,0xff,0xff,0xff,0xff,0xff,0xff,0xff,0xff,0xff,
0xff,0xff,0xff,0xff,0xff,0xff,0xff,0xff,0xff,0xff,0xff,0xff,0xff,0xff,0xff,
0xff,0xff,0xff,0xff,0xff,0xff,0xff,0xff,0xff,0xff,0xff,0xff,0xff,0xff,0xff,
0xff,0xff,0xff,0xff,0xff,0xff,0xff,0xff,0xff,0xff,0xff,0xff,0xff,0xff,0xff,
0xff,0xff,0xff,0xff,0xff,0xff,0xff,0xff,0xff,0xff,0xff,0xff,0xff,0xff,0xff,
0xff,0xff,0xff,0xff,0xff,0xff,0xff,0xff,0xff,0xff,0xff,0xff,0xff,0xff,0xff,
0xff,0xff,0xff,0xff,0xff,0xff,0xff,0xff,0xff,0xff,0xff,0xff,0xff,0xff,0xff,
0xff,0xff,0xff,0xff,0xff,0xff,0xff,0xff,0xff,0xff,0xff,0xff,0xff,0xff,0xff,
0xff,0xff,0xff,0xff,0xff,0xff,0xff,0xff,0xff,0xff,0xff,0xff,0xff,0xff,0xff,
0xff,0xff,0xff,0xff,0xff,0xff,0xff,0xff,0xff,0xff,0xff,0xff,0xff,0xff,0xff,
0xff,0xff,0xff,0xff,0xff,0xff,0xff,0xff,0xff,0xff,0xff,0xff,0xff,0xff,0xff,
0xff,0xff,0xff,0xff,0xff,0xff,0xff,0xff,0xff,0xff,0xff,0xff,0xff,0xff,0xff,
0xff,0xff,0xff,0xff,0xff,0xff,0xff,0xff,0xff,0xff,0xff,0xff,0xff,0xff,0xff,
0xff,0xff,0xff,0xff,0xff,0xff,0xff,0xff,0xff,0xff,0xff,0xff,0xff,0xff,0xff,
0xff,0xff,0xff,0xff,0xff,0xff,0xff,0xff,0xff,0xff,0xff,0xff,0xff,0xff,0xff,
0xff,0xff,0xff,0xff,0xff,0xff,0xff,0xff,0xff,0xff,0xff,0xff,0xff,0xff,0xff,
0xff,0xff,0xff,0xff,0xff,0xff,0xff,0xff,0xff,0xff,0xff,0xff,0xff,0xff,0xff,
0xff,0xff,0xff,0xff,0xff,0xff,0xff,0xff,0xff,0xff,0xff,0xff,0xff,0xff,0xff,
0xff,0xff,0xff,0xff,0xff,0xff,0xff,0xff,0xff,0xff,0xff,0xff,0xff,0xff,0xff,
0xff,0xff,0xff,0xff,0xff,0xff,0xff,0xff,0xff,0xff,0xff,0xff,0xff,0xff,0xff,
0xff,0xff,0xff,0xff,0xff,0xff,0xff,0xff,0xff,0xff,0xff,0xff,0xff,0xff,0xff,
0xff,0xff,0xff,0xff,0xff,0xff,0xff,0xff,0xff,0xff,0xff,0xff,0xff,0xff,0xff,
0xff,0xff,0xff,0xff,0xff,0xff,0xff,0xff,0xff,0xff,0xff,0xff,0xff,0xff,0xff,
0xff,0xff,0xff,0xff,0xff,0xff,0xff,0xff,0xff,0xff,0xff,0xff,0xff,0xff,0xff,
0xff,0xff,0xff,0xff,0xff,0xff,0xff,0xff,0xff,0xff,0xff,0xff,0xff,0xff,0xff,
0xff,0xff,0xff,0xff,0xff,0xff,0xff,0xff,0xff,0xff,0xff,0xff,0xff,0xff,0xff,
0xff,0xff,0xff,0xff,0xff,0xff,0xff,0xff,0xff,0xff,0xff,0xff,0xff,0xff,0xff,
0xff,0xff,0xff,0xff,0xff,0xff,0xff,0xff,0xff,0xff,0xff,0xff,0xff,0xff,0xff,
0xff,0xff,0xff
};
